# xmcd CD database file
#
# Track frame offsets:
#	150
#	36969
#	56368
#	72225
#	92526
#	121305
#	139334
#	160269
#	179856
#	192406
#	228074
#
# Disc length: 3399 seconds
#
# Revision: 1
# Processed by: cddbd v1.5.2PL0 Copyright (c) Steve Scherf et al.
# Submitted via: CDex 1.51
#
DISCID=980d450b
DTITLE=Geoff Achison, Adrian Keating - Classically Blue Live
DYEAR=2011
DGENRE=Blues
TTITLE0=Each Long Day
TTITLE1=Getting Evil
TTITLE2=You and I
TTITLE3=Overtime
TTITLE4=One Ticket, One Ride
TTITLE5=Bridge
TTITLE6=Apparatus
TTITLE7=Kissing Angels
TTITLE8=My Little Bag
TTITLE9=Blew My Top
TTITLE10=It's Over
EXTD=YEAR: 2011
EXTT0=
EXTT1=
EXTT2=
EXTT3=
EXTT4=
EXTT5=
EXTT6=
EXTT7=
EXTT8=
EXTT9=
EXTT10=
PLAYORDER=
